<?xml version="1.0" encoding="UTF-8"?>
<svg width="215px" height="81px" viewBox="0 0 215 81" version="1.1" xmlns="http://www.w3.org/2000/svg" xmlns:xlink="http://www.w3.org/1999/xlink">
    <!-- Generator: Sketch 41.2 (35397) - http://www.bohemiancoding.com/sketch -->
    <title>about</title>
    <desc>Created with Sketch.</desc>
    <defs></defs>
    <g id="Page-1" stroke="none" stroke-width="1" fill="none" fill-rule="evenodd">
        <g id="about">
            <rect id="Rectangle" fill="#FFFFFF" x="0" y="0" width="214.534" height="81"></rect>
            <path d="M11.818,48.4 C11.818,50.4160101 12.6719914,52.0959933 14.38,53.44 C16.0880085,54.7840067 18.0899885,55.456 20.386,55.456 C23.6340162,55.456 26.5319872,54.252012 29.08,51.844 C31.6280127,49.435988 32.902,46.6080162 32.902,43.36 C30.4939879,41.4559905 27.1340215,40.504 22.822,40.504 C19.6859843,40.504 17.0680105,41.2599924 14.968,42.772 C12.8679895,44.2840076 11.818,46.1599888 11.818,48.4 Z M21.814,18.496 C27.5260285,18.496 32.0339835,20.0219847 35.338,23.074 C38.6420165,26.1260153 40.294,30.3119734 40.294,35.632 L40.294,61 L32.902,61 L32.902,55.288 L32.566,55.288 C29.373984,59.9920235 25.1180266,62.344 19.798,62.344 C15.2619773,62.344 11.4680152,61.0000134 8.41599997,58.312 C5.36398471,55.6239866 3.83799997,52.2640202 3.83799997,48.232 C3.83799997,43.9759787 5.44798387,40.5880126 8.66799997,38.068 C11.8880161,35.5479874 16.1859731,34.288 21.562,34.288 C26.1540229,34.288 29.9339851,35.1279916 32.902,36.808 L32.902,35.044 C32.902,32.3559866 31.8380106,30.0740094 29.71,28.198 C27.5819893,26.3219906 25.0900143,25.384 22.234,25.384 C17.9219784,25.384 14.5060126,27.2039818 11.986,30.844 L5.18199997,26.56 C8.93401873,21.1839731 14.4779633,18.496 21.814,18.496 Z M71.086,62.344 C68.0619849,62.344 65.3040124,61.7000064 62.812,60.412 C60.3199875,59.1239936 58.4020067,57.4160106 57.058,55.288 L56.722,55.288 L56.722,61 L49.33,61 L49.33,0.856 L57.058,0.856 L57.058,19.84 L56.722,25.552 L57.058,25.552 C58.4020067,23.4239894 60.3199875,21.7160064 62.812,20.428 C65.3040124,19.1399936 68.0619849,18.496 71.086,18.496 C76.5180271,18.496 81.1099812,20.6239787 84.862,24.88 C88.7260193,29.1920216 90.658,34.3719698 90.658,40.42 C90.658,46.5240305 88.7260193,51.7039787 84.862,55.96 C81.1099812,60.2160213 76.5180271,62.344 71.086,62.344 Z M69.826,55.288 C73.5220185,55.288 76.6299874,53.888014 79.15,51.088 C81.6700126,48.3439863 82.93,44.7880218 82.93,40.42 C82.93,36.1079784 81.6700126,32.552014 79.15,29.752 C76.6299874,26.951986 73.5220185,25.552 69.826,25.552 C66.0739812,25.552 62.9380126,26.951986 60.418,29.752 C57.9539877,32.552014 56.722,36.1079784 56.722,40.42 C56.722,44.7880218 57.9539877,48.371986 60.418,51.172 C62.9380126,53.9160137 66.0739812,55.288 69.826,55.288 Z M95.662,40.42 C95.662,34.0919684 97.6499801,28.8560207 101.626,24.712 C105.65802,20.5679793 110.725969,18.496 116.83,18.496 C122.934031,18.496 127.97398,20.5679793 131.95,24.712 C135.98202,28.8560207 137.998,34.0919684 137.998,40.42 C137.998,46.8040319 135.98202,52.0399796 131.95,56.128 C127.97398,60.2720207 122.934031,62.344 116.83,62.344 C110.725969,62.344 105.65802,60.2720207 101.626,56.128 C97.6499801,51.9839793 95.662,46.7480316 95.662,40.42 Z M103.39,40.42 C103.39,44.8440221 104.677987,48.4279863 107.254,51.172 C109.830013,53.9160137 113.021981,55.288 116.83,55.288 C120.638019,55.288 123.829987,53.9160137 126.406,51.172 C128.982013,48.4279863 130.27,44.8440221 130.27,40.42 C130.27,36.0519782 128.982013,32.4960137 126.406,29.752 C123.773987,26.951986 120.582019,25.552 116.83,25.552 C113.077981,25.552 109.886013,26.951986 107.254,29.752 C104.677987,32.4960137 103.39,36.0519782 103.39,40.42 Z M181.054,61 L173.662,61 L173.662,55.288 L173.326,55.288 C172.149994,57.3040101 170.344012,58.9839933 167.908,60.328 C165.471988,61.6720067 162.938013,62.344 160.306,62.344 C155.265975,62.344 151.388014,60.9020144 148.672,58.018 C145.955986,55.1339856 144.598,51.0320266 144.598,45.712 L144.598,19.84 L152.326,19.84 L152.326,45.208 C152.494001,51.9280336 155.881967,55.288 162.49,55.288 C165.570015,55.288 168.14599,54.0420125 170.218,51.55 C172.29001,49.0579875 173.326,46.0760174 173.326,42.604 L173.326,19.84 L181.054,19.84 L181.054,61 Z M207.478,61.672 C204.117983,61.672 201.332011,60.6360104 199.12,58.564 C196.907989,56.4919896 195.774,53.6080185 195.718,49.912 L195.718,26.896 L188.494,26.896 L188.494,19.84 L195.718,19.84 L195.718,7.24 L203.446,7.24 L203.446,19.84 L213.526,19.84 L213.526,26.896 L203.446,26.896 L203.446,47.392 C203.446,50.1360137 203.977995,51.9979951 205.042,52.978 C206.106005,53.9580049 207.309993,54.448 208.654,54.448 C209.270003,54.448 209.871997,54.3780007 210.46,54.238 C211.048003,54.0979993 211.593997,53.9160011 212.098,53.692 L214.534,60.58 C212.51799,61.3080036 210.166013,61.672 207.478,61.672 Z" fill="#3A3A3A"></path>
        </g>
    </g>
</svg>