<?xml version="1.0" encoding="UTF-8"?>
<svg width="178px" height="81px" viewBox="0 0 178 81" version="1.1" xmlns="http://www.w3.org/2000/svg" xmlns:xlink="http://www.w3.org/1999/xlink">
    <!-- Generator: Sketch 41.2 (35397) - http://www.bohemiancoding.com/sketch -->
    <title>cook</title>
    <desc>Created with Sketch.</desc>
    <defs></defs>
    <g id="Page-1" stroke="none" stroke-width="1" fill="none" fill-rule="evenodd">
        <g id="cook">
            <rect id="Rectangle" fill="#FFFFFF" x="1" y="0" width="177" height="81"></rect>
            <path d="M21.168,61.488 C15.0639695,61.488 9.99602016,59.4160207 5.964,55.272 C1.98798012,51.0159787 0,45.7800311 0,39.564 C0,33.2359684 1.98798012,28.0000207 5.964,23.856 C9.99602016,19.7119793 15.0639695,17.64 21.168,17.64 C25.368021,17.64 29.0359843,18.6899895 32.172,20.79 C35.3080157,22.8900105 37.6599922,25.7879815 39.228,29.484 L32.172,32.424 C29.9879891,27.2719742 26.1520274,24.696 20.664,24.696 C17.1359824,24.696 14.0840129,26.1239857 11.508,28.98 C8.9879874,31.8360143 7.728,35.363979 7.728,39.564 C7.728,43.764021 8.9879874,47.2919857 11.508,50.148 C14.0840129,53.0040143 17.1359824,54.432 20.664,54.432 C26.3200283,54.432 30.2959885,51.8560258 32.592,46.704 L39.48,49.644 C37.9679924,53.3400185 35.6020161,56.2379895 32.382,58.338 C29.1619839,60.4380105 25.4240213,61.488 21.168,61.488 Z M43.728,39.564 C43.728,33.2359684 45.7159801,28.0000207 49.692,23.856 C53.7240202,19.7119793 58.7919695,17.64 64.896,17.64 C71.0000305,17.64 76.0399801,19.7119793 80.016,23.856 C84.0480202,28.0000207 86.064,33.2359684 86.064,39.564 C86.064,45.9480319 84.0480202,51.1839796 80.016,55.272 C76.0399801,59.4160207 71.0000305,61.488 64.896,61.488 C58.7919695,61.488 53.7240202,59.4160207 49.692,55.272 C45.7159801,51.1279793 43.728,45.8920316 43.728,39.564 Z M51.456,39.564 C51.456,43.9880221 52.7439871,47.5719863 55.32,50.316 C57.8960129,53.0600137 61.087981,54.432 64.896,54.432 C68.7040191,54.432 71.8959871,53.0600137 74.472,50.316 C77.0480129,47.5719863 78.336,43.9880221 78.336,39.564 C78.336,35.1959782 77.0480129,31.6400137 74.472,28.896 C71.8399869,26.095986 68.6480188,24.696 64.896,24.696 C61.1439813,24.696 57.9520132,26.095986 55.32,28.896 C52.7439871,31.6400137 51.456,35.1959782 51.456,39.564 Z M91.068,39.564 C91.068,33.2359684 93.0559801,28.0000207 97.032,23.856 C101.06402,19.7119793 106.13197,17.64 112.236,17.64 C118.340031,17.64 123.37998,19.7119793 127.356,23.856 C131.38802,28.0000207 133.404,33.2359684 133.404,39.564 C133.404,45.9480319 131.38802,51.1839796 127.356,55.272 C123.37998,59.4160207 118.340031,61.488 112.236,61.488 C106.13197,61.488 101.06402,59.4160207 97.032,55.272 C93.0559801,51.1279793 91.068,45.8920316 91.068,39.564 Z M98.796,39.564 C98.796,43.9880221 100.083987,47.5719863 102.66,50.316 C105.236013,53.0600137 108.427981,54.432 112.236,54.432 C116.044019,54.432 119.235987,53.0600137 121.812,50.316 C124.388013,47.5719863 125.676,43.9880221 125.676,39.564 C125.676,35.1959782 124.388013,31.6400137 121.812,28.896 C119.179987,26.095986 115.988019,24.696 112.236,24.696 C108.483981,24.696 105.292013,26.095986 102.66,28.896 C100.083987,31.6400137 98.796,35.1959782 98.796,39.564 Z M176.544,60.144 L167.22,60.144 L154.368,40.74 L148.068,46.956 L148.068,60.144 L140.34,60.144 L140.34,0 L148.068,0 L148.068,37.044 L165.876,18.984 L175.788,18.984 L175.788,19.32 L159.744,35.28 L176.544,59.808 L176.544,60.144 Z" fill="#3A3A3A"></path>
        </g>
    </g>
</svg>