<?xml version="1.0" encoding="UTF-8"?>
<svg width="179px" height="63px" viewBox="0 0 179 63" version="1.1" xmlns="http://www.w3.org/2000/svg" xmlns:xlink="http://www.w3.org/1999/xlink">
    <!-- Generator: Sketch 41.2 (35397) - http://www.bohemiancoding.com/sketch -->
    <title>cook</title>
    <desc>Created with Sketch.</desc>
    <defs></defs>
    <g id="Page-1" stroke="none" stroke-width="1" fill="none" fill-rule="evenodd">
        <path d="M21.9125,62.36 C15.7358025,62.36 10.6075204,60.2633543 6.5275,56.07 C2.50414655,51.7633118 0.4925,46.4650314 0.4925,40.175 C0.4925,33.7716346 2.50414655,28.4733543 6.5275,24.28 C10.6075204,20.0866457 15.7358025,17.99 21.9125,17.99 C26.1625213,17.99 29.8741508,19.0524894 33.0475,21.1775 C36.2208492,23.3025106 38.6008254,26.2349813 40.1875,29.975 L33.0475,32.95 C30.837489,27.7366406 26.9558611,25.13 21.4025,25.13 C17.8324822,25.13 14.7441797,26.5749855 12.1375,29.465 C9.58748725,32.3550144 8.3125,35.9249787 8.3125,40.175 C8.3125,44.4250212 9.58748725,47.9949855 12.1375,50.885 C14.7441797,53.7750145 17.8324822,55.22 21.4025,55.22 C27.125862,55.22 31.1491551,52.6133594 33.4725,47.4 L40.4425,50.375 C38.9124924,54.1150187 36.5183496,57.0474894 33.26,59.1725 C30.0016504,61.2975106 26.2191882,62.36 21.9125,62.36 Z M44.4375,40.175 C44.4375,33.7716346 46.4491466,28.4733543 50.4725,24.28 C54.5525204,20.0866457 59.6808025,17.99 65.8575,17.99 C72.0341976,17.99 77.1341466,20.0866457 81.1575,24.28 C85.2375204,28.4733543 87.2775,33.7716346 87.2775,40.175 C87.2775,46.6350323 85.2375204,51.9333127 81.1575,56.07 C77.1341466,60.2633543 72.0341976,62.36 65.8575,62.36 C59.6808025,62.36 54.5525204,60.2633543 50.4725,56.07 C46.4491466,51.8766457 44.4375,46.5783653 44.4375,40.175 Z M52.2575,40.175 C52.2575,44.6516891 53.5608203,48.2783194 56.1675,51.055 C58.7741797,53.8316806 62.0041474,55.22 65.8575,55.22 C69.7108526,55.22 72.9408203,53.8316806 75.5475,51.055 C78.1541797,48.2783194 79.4575,44.6516891 79.4575,40.175 C79.4575,35.7549779 78.1541797,32.1566806 75.5475,29.38 C72.8841534,26.5466525 69.6541857,25.13 65.8575,25.13 C62.0608144,25.13 58.8308467,26.5466525 56.1675,29.38 C53.5608203,32.1566806 52.2575,35.7549779 52.2575,40.175 Z M92.0375,40.175 C92.0375,33.7716346 94.0491466,28.4733543 98.0725,24.28 C102.15252,20.0866457 107.280802,17.99 113.4575,17.99 C119.634198,17.99 124.734147,20.0866457 128.7575,24.28 C132.83752,28.4733543 134.8775,33.7716346 134.8775,40.175 C134.8775,46.6350323 132.83752,51.9333127 128.7575,56.07 C124.734147,60.2633543 119.634198,62.36 113.4575,62.36 C107.280802,62.36 102.15252,60.2633543 98.0725,56.07 C94.0491466,51.8766457 92.0375,46.5783653 92.0375,40.175 Z M99.8575,40.175 C99.8575,44.6516891 101.16082,48.2783194 103.7675,51.055 C106.37418,53.8316806 109.604147,55.22 113.4575,55.22 C117.310853,55.22 120.54082,53.8316806 123.1475,51.055 C125.75418,48.2783194 127.0575,44.6516891 127.0575,40.175 C127.0575,35.7549779 125.75418,32.1566806 123.1475,29.38 C120.484153,26.5466525 117.254186,25.13 113.4575,25.13 C109.660814,25.13 106.430847,26.5466525 103.7675,29.38 C101.16082,32.1566806 99.8575,35.7549779 99.8575,40.175 Z M178.2275,61 L168.7925,61 L155.7875,41.365 L149.4125,47.655 L149.4125,61 L141.5925,61 L141.5925,0.14 L149.4125,0.14 L149.4125,37.625 L167.4325,19.35 L177.4625,19.35 L177.4625,19.69 L161.2275,35.84 L178.2275,60.66 L178.2275,61 Z" id="cook" fill="#3A3A3A"></path>
    </g>
</svg>